<svg width="1.5" height="1.5" viewBox="0 0 9 9" fill="none" xmlns="http://www.w3.org/2000/svg">
<path d="M5.51018 1.97201C5.08126 1.97201 4.65234 1.97853 4.22993 1.97201C4.00247 1.96549 3.77502 1.94593 3.55406 1.93289C3.21612 1.91332 3.07965 1.68509 3.04716 1.39817C3.02116 1.11777 3.02766 0.830855 3.04716 0.550456C3.07315 0.185286 3.26811 0.00270104 3.64504 0.00270104C5.23723 -0.00381985 6.82292 0.00270104 8.41511 0.00922194C8.76605 0.00922194 9 0.250495 9 0.615665C8.9935 2.21981 8.97401 3.83047 8.96101 5.43461C8.96101 5.69544 8.81154 5.88455 8.55809 5.90411C8.20716 5.93672 7.84322 5.94976 7.49229 5.92368C7.23234 5.90411 7.06338 5.72153 7.05688 5.44113C7.04388 4.98467 7.03738 4.5282 7.02438 4.07174C7.01789 3.88263 7.02438 3.68701 7.02438 3.40009C6.84242 3.56963 6.73194 3.67397 6.62146 3.78482C4.95129 5.44113 3.28111 7.09744 1.60444 8.74722C1.25351 9.09283 1.01955 9.07979 0.66212 8.73418C0.506151 8.5842 0.350181 8.4277 0.207209 8.2712C-0.0722369 7.95819 -0.0722367 7.72344 0.226705 7.42348C1.90338 5.72805 3.58005 4.03262 5.26323 2.3437C5.36071 2.24589 5.49718 2.1872 5.61416 2.11547C5.56867 2.06983 5.54267 2.02418 5.51018 1.97201Z" fill="#52526C" fill-opacity="0.8"/>
</svg>
