<svg width="20" height="28" viewBox="0 0 20 28" fill="none" xmlns="http://www.w3.org/2000/svg">
<path d="M13.2969 0.574219C14.2721 0.911458 15.1562 1.3763 15.9492 1.96875C16.7422 2.5612 17.4212 3.25391 17.9863 4.04688C18.5514 4.83984 18.9844 5.71029 19.2852 6.6582C19.5859 7.60612 19.7409 8.59505 19.75 9.625C19.75 10.9375 19.4993 12.1543 18.998 13.2754C18.4967 14.3965 17.7858 15.4264 16.8652 16.3652C16.2181 17.0306 15.7031 17.737 15.3203 18.4844C14.9375 19.2318 14.696 20.0703 14.5957 21H5.6543C5.55404 20.0703 5.31706 19.2318 4.94336 18.4844C4.56966 17.737 4.05469 17.0352 3.39844 16.3789C2.48698 15.4401 1.77604 14.4102 1.26562 13.2891C0.755208 12.168 0.5 10.9466 0.5 9.625C0.5 8.74089 0.613932 7.88867 0.841797 7.06836C1.06966 6.24805 1.39323 5.47786 1.8125 4.75781C2.23177 4.03776 2.73307 3.39062 3.31641 2.81641C3.89974 2.24219 4.54688 1.74089 5.25781 1.3125C5.96875 0.884115 6.73438 0.560547 7.55469 0.341797C8.375 0.123047 9.23177 0.00911458 10.125 0C10.2253 0 10.321 0.00455729 10.4121 0.0136719C10.5033 0.0227865 10.6035 0.0364583 10.7129 0.0546875L5.51758 5.25L11.6426 11.375L8.04688 14.9707L9.5918 16.5293L14.7324 11.375L8.60742 5.25L13.2969 0.574219ZM5.75 22.75H14.5V25.375C14.5 25.7396 14.4316 26.0814 14.2949 26.4004C14.1582 26.7194 13.9714 26.9974 13.7344 27.2344C13.4974 27.4714 13.2194 27.6582 12.9004 27.7949C12.5814 27.9316 12.2396 28 11.875 28H8.375C8.01042 28 7.66862 27.9316 7.34961 27.7949C7.0306 27.6582 6.7526 27.4714 6.51562 27.2344C6.27865 26.9974 6.0918 26.7194 5.95508 26.4004C5.81836 26.0814 5.75 25.7396 5.75 25.375V22.75Z" fill="#00A04A"/>
</svg>
