<svg width="16" height="16" viewBox="0 0 16 16" fill="none" xmlns="http://www.w3.org/2000/svg">
<path d="M4.01999 9.46C4.14519 10.7357 4.75534 11.9146 5.72452 12.7535C6.6937 13.5923 7.94793 14.0271 9.22838 13.9681C10.5088 13.9091 11.7177 13.3608 12.6056 12.4363C13.4935 11.5118 13.9927 10.2818 14 9C14 6.24 11.76 4 8.99998 4H1.70999L3.85998 6.15C3.95106 6.2443 4.00146 6.3706 4.00032 6.5017C3.99918 6.6328 3.9466 6.7582 3.85389 6.85091C3.76119 6.94361 3.63578 6.9962 3.50469 6.99734C3.37359 6.99848 3.24729 6.94808 3.15299 6.857L0.152985 3.857C0.0592495 3.76324 0.0065918 3.63608 0.0065918 3.5035C0.0065918 3.37092 0.0592495 3.24376 0.152985 3.15L3.15299 0.149999C3.24729 0.0589205 3.37359 0.00852325 3.50469 0.00966246C3.63578 0.0108017 3.76119 0.0633861 3.85389 0.15609C3.9466 0.248794 3.99918 0.3742 4.00032 0.505299C4.00146 0.636397 3.95106 0.762698 3.85998 0.856999L1.70999 3.007H8.99998C12.31 3.007 15 5.697 15 9.007C15 12.317 12.31 15.007 8.99998 15.007C5.86998 15.007 3.29998 12.607 3.01998 9.547C3.00805 9.41492 3.04907 9.28351 3.13403 9.18168C3.21898 9.07985 3.34091 9.01593 3.47299 9.004C3.60506 8.99206 3.73647 9.03309 3.8383 9.11804C3.94014 9.20299 4.00405 9.32492 4.01599 9.457L4.01999 9.46Z" fill="#335436"/>
<path d="M10.7001 10.1C10.8187 10.1593 10.909 10.2633 10.951 10.3891C10.993 10.5149 10.9833 10.6523 10.9241 10.771C10.8648 10.8897 10.7608 10.98 10.6349 11.022C10.5091 11.064 10.3717 11.0543 10.2531 10.995L8.25305 9.995C8.1701 9.95344 8.10036 9.88962 8.05161 9.81067C8.00287 9.73173 7.97705 9.64078 7.97705 9.548V6.548C7.97705 6.4154 8.02973 6.28822 8.1235 6.19445C8.21727 6.10068 8.34444 6.048 8.47705 6.048C8.60966 6.048 8.73684 6.10068 8.8306 6.19445C8.92437 6.28822 8.97705 6.4154 8.97705 6.548V9.238L10.6971 10.1H10.7001Z" fill="#335436"/>
</svg>
