<svg width="16" height="16" viewBox="0 0 16 16" fill="none" xmlns="http://www.w3.org/2000/svg">
<path d="M6 6H10V10H6V6Z" fill="#335436"/>
<path fill-rule="evenodd" clip-rule="evenodd" d="M8.60012 1C10.2001 1.1 11.7001 1.9 12.8001 3C14.1001 4.4 14.8001 6.1 14.8001 8.1C14.8001 9.7 14.2001 11.2 13.2001 12.5C12.2001 13.7 10.8001 14.6 9.20012 14.9C7.60012 15.2 6.00012 15 4.60012 14.2C3.20012 13.4 2.10012 12.2 1.50012 10.7C0.90012 9.2 0.80012 7.5 1.30012 6C1.80012 4.4 2.70012 3.1 4.10012 2.2C5.40012 1.3 7.00012 0.900001 8.60012 1ZM9.10012 13.9C10.4001 13.6 11.6001 12.9 12.5001 11.8C13.3001 10.7 13.8001 9.4 13.7001 8C13.7001 6.4 13.1001 4.8 12.0001 3.7C11.0001 2.7 9.80012 2.1 8.40012 2C7.10012 1.9 5.70012 2.2 4.60012 3C3.50012 3.8 2.70012 4.9 2.30012 6.3C1.90012 7.6 1.90012 9 2.50012 10.3C3.10012 11.6 4.00012 12.6 5.20012 13.3C6.40012 14 7.80012 14.2 9.10012 13.9Z" fill="#335436"/>
</svg>
