<svg width="35" height="35" viewBox="0 0 25 25" fill="none" xmlns="http://www.w3.org/2000/svg">
<g clip-path="url(#clip0_4_1512)">
<path d="M12.5 10.1074C14.8424 10.1074 16.748 8.20174 16.748 5.85936C16.748 3.51698 14.8424 1.61131 12.5 1.61131C10.1576 1.61131 8.25195 3.51698 8.25195 5.85936C8.25195 8.20174 10.1576 10.1074 12.5 10.1074ZM12.5 3.07616C14.0347 3.07616 15.2832 4.32469 15.2832 5.85936C15.2832 7.39403 14.0347 8.64256 12.5 8.64256C10.9653 8.64256 9.7168 7.39403 9.7168 5.85936C9.7168 4.32469 10.9653 3.07616 12.5 3.07616Z" fill="#00A04A"/>
<path d="M21.0938 10.1074C22.5746 10.1074 23.7793 8.90267 23.7793 7.42186C23.7793 5.94105 22.5746 4.73631 21.0938 4.73631C19.6129 4.73631 18.4082 5.94105 18.4082 7.42186C18.4082 8.90267 19.6129 10.1074 21.0938 10.1074ZM21.0938 6.20116C21.7668 6.20116 22.3145 6.74876 22.3145 7.42186C22.3145 8.09496 21.7668 8.64256 21.0938 8.64256C20.4207 8.64256 19.873 8.09496 19.873 7.42186C19.873 6.74876 20.4207 6.20116 21.0938 6.20116Z" fill="#00A04A"/>
<path d="M21.6846 11.7676H20.5518C19.2168 11.7676 18.0645 12.5562 17.5394 13.689C16.4583 12.5089 14.9054 11.7676 13.1826 11.7676H11.8175C10.0946 11.7676 8.54175 12.5089 7.46065 13.689C6.9355 12.5562 5.78315 11.7676 4.44824 11.7676H3.31543C1.4873 11.7676 0 13.2459 0 15.063V20.3955C0 21.1844 0.644238 21.8262 1.43613 21.8262H5.91499C5.99009 22.7002 6.72505 23.3887 7.61826 23.3887H17.3818C18.275 23.3887 19.0099 22.7002 19.0851 21.8262H23.5127C24.3329 21.8262 25 21.1616 25 20.3447V15.063C25 13.2459 23.5127 11.7676 21.6846 11.7676ZM1.46484 15.063C1.46484 14.0536 2.29502 13.2324 3.31543 13.2324H4.44824C5.46865 13.2324 6.29883 14.0536 6.29883 15.063V15.5645C5.8063 16.8469 5.9082 17.6155 5.9082 20.3613H1.46484V15.063ZM17.627 21.6786C17.627 21.8139 17.517 21.9238 17.3818 21.9238H7.61821C7.48301 21.9238 7.37305 21.8138 7.37305 21.6786V17.6768C7.37305 15.2262 9.3668 13.2324 11.8174 13.2324H13.1825C15.6332 13.2324 17.627 15.2262 17.627 17.6768V21.6786ZM23.5352 20.3447C23.5352 20.37 23.8082 20.3613 19.0918 20.3613C19.0918 17.5952 19.1929 16.8448 18.7012 15.5645V15.063C18.7012 14.0536 19.5313 13.2324 20.5518 13.2324H21.6846C22.705 13.2324 23.5352 14.0536 23.5352 15.063V20.3447Z" fill="#00A04A"/>
<path d="M3.90625 10.1074C5.38706 10.1074 6.5918 8.90267 6.5918 7.42186C6.5918 5.94105 5.38706 4.73631 3.90625 4.73631C2.42544 4.73631 1.2207 5.94105 1.2207 7.42186C1.2207 8.90267 2.42544 10.1074 3.90625 10.1074ZM3.90625 6.20116C4.57935 6.20116 5.12695 6.74876 5.12695 7.42186C5.12695 8.09496 4.57935 8.64256 3.90625 8.64256C3.23315 8.64256 2.68555 8.09496 2.68555 7.42186C2.68555 6.74876 3.23315 6.20116 3.90625 6.20116Z" fill="#00A04A"/>
</g>
<defs>
<clipPath id="clip0_4_1512">
<rect width="25" height="25" fill="white"/>
</clipPath>
</defs>
</svg>
